<svg id="Layer_1" data-name="Layer 1" xmlns="http://www.w3.org/2000/svg" viewBox="0 0 1920 1080"><title>Artboard 3</title><path d="M902.32,659.68q-14.5,0-22.41-8.83T872,626.53V568.72h25.32v49.81q0,9,4,13.58t11.33,4.58q7.33,0,11.58-4.58t4.25-13.58V568.72H953.8V658H928.48V645.35a54.07,54.07,0,0,1-4.75,5.41,33.13,33.13,0,0,1-5.75,4.58,28.53,28.53,0,0,1-7,3.16A29.77,29.77,0,0,1,902.32,659.68Z"/><path d="M1006.6,659.51A41.63,41.63,0,0,1,996,658.27a18.84,18.84,0,0,1-8.16-4.42,21.15,21.15,0,0,1-5.33-8.25,37,37,0,0,1-1.92-12.91V590.38H970V568.72h10.66V545.9h25.32v22.82h21v21.66h-21v38.15q0,8.66,8.16,8.66A25.77,25.77,0,0,0,1026.6,634v20.32a39.3,39.3,0,0,1-8.83,3.75A39.86,39.86,0,0,1,1006.6,659.51Z"/><path d="M1085.24,660a46.82,46.82,0,0,1-18.58-3.66,44.88,44.88,0,0,1-24.4-24.57,46.17,46.17,0,0,1-3.5-17.91v-.33a46.8,46.8,0,0,1,3.5-18,46.26,46.26,0,0,1,9.66-14.83,45,45,0,0,1,14.74-10,47.67,47.67,0,0,1,18.91-3.66q12.66,0,21,4a47.12,47.12,0,0,1,14.66,11l-15.49,16.66a41.44,41.44,0,0,0-8.91-7.16,22.42,22.42,0,0,0-11.41-2.67,19.66,19.66,0,0,0-8.75,1.92,21.67,21.67,0,0,0-6.83,5.25,23.89,23.89,0,0,0-4.5,7.75,27.63,27.63,0,0,0-1.58,9.41v.33a28.83,28.83,0,0,0,1.58,9.66,22.91,22.91,0,0,0,4.58,7.83,21.69,21.69,0,0,0,7.16,5.25,22,22,0,0,0,9.33,1.92,22.79,22.79,0,0,0,11.08-2.58,46.68,46.68,0,0,0,9.42-6.91l14.83,15a56.93,56.93,0,0,1-14.83,11.74Q1098.56,660,1085.24,660Z"/><path d="M1220,600.21q0-15.49-7.91-24.32t-22.41-8.83a29.75,29.75,0,0,0-8.66,1.17,28.58,28.58,0,0,0-7,3.16,33,33,0,0,0-5.75,4.58,54,54,0,0,0-4.75,5.41v-45h-25.32V658h25.32V608.2q0-9,4.25-13.58t11.58-4.58q7.33,0,11.33,4.58t4,13.58v46l25.32-36Z"/><path d="M848,576.47a54.57,54.57,0,0,0-12.75-18.41,59.24,59.24,0,0,0-19.66-12.24,69,69,0,0,0-25.07-4.42H745.06v23.32h45.48a38.65,38.65,0,0,1,14.33,2.57,31.77,31.77,0,0,1,11.08,7.21,33.13,33.13,0,0,1,7.16,11.11,37.68,37.68,0,0,1,2.58,14.09V600a36.88,36.88,0,0,1-2.58,14.09,33.54,33.54,0,0,1-7.16,10.94,30.83,30.83,0,0,1-11.08,7.13,39.78,39.78,0,0,1-14.33,2.49H770.72V587.44H745.06V658h45.48a67.83,67.83,0,0,0,25.07-4.5,60.29,60.29,0,0,0,19.66-12.33A54.29,54.29,0,0,0,848,622.7a58.54,58.54,0,0,0,4.5-23v-.33A58,58,0,0,0,848,576.47Z"/><path d="M1355.74,525.8l-50.27,73.48,52.42,76.91h-38.67l-33.73-51.56-33.94,51.56h-37.6l52.42-76.48-50.27-73.9h38.67l31.37,48.77,32-48.77Z"/><path d="M645.31,593.72h0c17.22,17.65,32.95,38.37,42.37,61.27a65.68,65.68,0,0,0,17.2-44.35V546C689.54,554.62,658.63,573.64,645.31,593.72Z"/><path d="M589.2,663.82A65.49,65.49,0,0,0,628,676.46H639a65.49,65.49,0,0,0,38.76-12.64c-8.85-24-25.79-45.81-44.3-64.19C615,618,598.05,639.84,589.2,663.82Z"/><path d="M633.5,587.88s15.09-17.33,22.68-23.77c-2-14.11-14.55-30-22.68-38.58-8.14,8.57-20.68,24.47-22.68,38.58C618.41,570.55,633.5,587.88,633.5,587.88Z"/><path d="M621.69,593.72c-13.31-20.07-44.23-39.1-59.58-47.72v64.64A65.68,65.68,0,0,0,579.32,655c9.42-22.9,25.15-43.63,42.37-61.27Z"/><path d="M632.52,454.35a19,19,0,0,1,3.66,11.91q0,9.81-7.54,15.14t-22,5.33h-37.5V411.3H604.5q13.36,0,20.58,5.23a16.8,16.8,0,0,1,7.22,14.39,18.88,18.88,0,0,1-2.59,9.91,17.68,17.68,0,0,1-7.11,6.68A19.93,19.93,0,0,1,632.52,454.35Zm-49.36-32.06v20.8H603q7.33,0,11.26-2.64a8.7,8.7,0,0,0,3.93-7.71,8.8,8.8,0,0,0-3.93-7.81q-3.93-2.64-11.26-2.64Zm38.9,42.57q0-10.88-16.27-10.88H583.16v21.77h22.63Q622.06,475.74,622.06,464.86Z"/><path d="M705.58,429.19v57.55H692.76v-7.33a21.45,21.45,0,0,1-8.08,6,26,26,0,0,1-10.45,2.1q-11.53,0-18.16-6.41t-6.63-19V429.19h13.47v31q0,7.76,3.5,11.58t10,3.83q7.22,0,11.48-4.47t4.26-12.88v-29.1Z"/><path d="M723.9,417.39a7.95,7.95,0,0,1,0-11.53,8.65,8.65,0,0,1,6.14-2.32,8.9,8.9,0,0,1,6.14,2.21,7.13,7.13,0,0,1,2.48,5.55,8.13,8.13,0,0,1-2.42,6,8.39,8.39,0,0,1-6.2,2.42A8.65,8.65,0,0,1,723.9,417.39Zm-.65,11.8h13.47v57.55H723.26Z"/><path d="M754.4,406.77h13.47v80H754.4Z"/><path d="M822.94,483.61a15.87,15.87,0,0,1-5.77,2.91,26,26,0,0,1-7.17,1q-9.48,0-14.66-5t-5.17-14.44V440.4h-9.48V429.62h9.48V416.47h13.47v13.15h15.41V440.4H803.65v27.37q0,4.2,2,6.41a7.68,7.68,0,0,0,5.93,2.21,11.83,11.83,0,0,0,7.54-2.37Z"/><path d="M873.91,483.72A27.48,27.48,0,0,1,863,473.21a31.42,31.42,0,0,1,0-30.44,27.61,27.61,0,0,1,10.94-10.45,34.93,34.93,0,0,1,31.58,0,27.63,27.63,0,0,1,10.94,10.45,31.42,31.42,0,0,1,0,30.44,27.49,27.49,0,0,1-10.94,10.51,34.93,34.93,0,0,1-31.58,0Zm28-12.72q4.85-5,4.85-13t-4.85-13a16.46,16.46,0,0,0-12.29-5,16.29,16.29,0,0,0-12.23,5q-4.8,5-4.8,13t4.8,13a16.28,16.28,0,0,0,12.23,5A16.46,16.46,0,0,0,901.93,471Z"/><path d="M983.4,434.9q6.57,6.36,6.57,18.86v33H976.5V455.48q0-7.54-3.56-11.37t-10.13-3.83q-7.44,0-11.75,4.47t-4.31,12.88v29.1H933.29V429.19h12.82v7.44a21.06,21.06,0,0,1,8.41-6,30.26,30.26,0,0,1,11.42-2Q976.83,428.54,983.4,434.9Z"/><path d="M1071.45,483.61a15.87,15.87,0,0,1-5.77,2.91,26,26,0,0,1-7.17,1q-9.48,0-14.66-5t-5.17-14.44V440.4h-9.48V429.62h9.48V416.47h13.47v13.15h15.41V440.4h-15.41v27.37q0,4.2,2,6.41a7.68,7.68,0,0,0,5.93,2.21,11.83,11.83,0,0,0,7.54-2.37Z"/><path d="M1090.74,483.72a27.48,27.48,0,0,1-10.94-10.51,31.42,31.42,0,0,1,0-30.44,27.61,27.61,0,0,1,10.94-10.45,34.93,34.93,0,0,1,31.58,0,27.63,27.63,0,0,1,10.94,10.45,31.42,31.42,0,0,1,0,30.44,27.49,27.49,0,0,1-10.94,10.51,34.93,34.93,0,0,1-31.58,0Zm28-12.72q4.85-5,4.85-13t-4.85-13a16.47,16.47,0,0,0-12.29-5,16.29,16.29,0,0,0-12.23,5q-4.8,5-4.8,13t4.8,13a16.28,16.28,0,0,0,12.23,5A16.46,16.46,0,0,0,1118.76,471Z"/><path d="M1197,432.21a26.43,26.43,0,0,1,10.4,10.35,33.48,33.48,0,0,1,0,30.88,26.32,26.32,0,0,1-10.4,10.4,30.55,30.55,0,0,1-15,3.66q-11.64,0-18.43-7.76v27.91h-13.47V429.19h12.82v7.54a20.82,20.82,0,0,1,8.24-6.14,27.85,27.85,0,0,1,10.83-2A30.56,30.56,0,0,1,1197,432.21Zm-4.31,38.8q4.79-5,4.8-13t-4.8-13a16.29,16.29,0,0,0-12.23-5,17.34,17.34,0,0,0-8.73,2.21,16,16,0,0,0-6.14,6.3,21,21,0,0,0,0,19,16,16,0,0,0,6.14,6.3,17.32,17.32,0,0,0,8.73,2.21A16.28,16.28,0,0,0,1192.74,471Z"/><path d="M1263.92,483.72A27.48,27.48,0,0,1,1253,473.21a31.42,31.42,0,0,1,0-30.44,27.61,27.61,0,0,1,10.94-10.45,34.93,34.93,0,0,1,31.58,0,27.63,27.63,0,0,1,10.94,10.45,31.42,31.42,0,0,1,0,30.44,27.49,27.49,0,0,1-10.94,10.51,34.93,34.93,0,0,1-31.58,0Zm28-12.72q4.85-5,4.85-13t-4.85-13a16.47,16.47,0,0,0-12.29-5,16.29,16.29,0,0,0-12.23,5q-4.8,5-4.8,13t4.8,13a16.28,16.28,0,0,0,12.23,5A16.46,16.46,0,0,0,1291.94,471Z"/><path d="M1338.17,426.17v3.45H1354V440.4H1338.6v46.34h-13.47V440.4h-9.48V429.62h9.48V426q0-9.27,5.39-14.6t15.2-5.34q7.76,0,12.18,3.13l-3.77,10.13a12.88,12.88,0,0,0-7.44-2.37Q1338.17,416.9,1338.17,426.17Z"/></svg>