<?xml version="1.0" encoding="UTF-8"?>
<svg width="118px" height="23px" viewBox="0 0 118 23" version="1.1" xmlns="http://www.w3.org/2000/svg" xmlns:xlink="http://www.w3.org/1999/xlink">
    <!-- Generator: Sketch 51.1 (57501) - http://www.bohemiancoding.com/sketch -->
    <title>dutchx_logo_2018_blue</title>
    <desc>Created with Sketch.</desc>
    <defs>
        <polygon id="path-1" points="0.0134030418 0.0761739544 13.8757224 0.0761739544 13.8757224 19.1719344 0.0134030418 19.1719344"></polygon>
    </defs>
    <g id="dutchx_logo_2018_blue" stroke="none" stroke-width="1" fill="none" fill-rule="evenodd">
        <g id="logo">
            <path d="M50.4482874,21 C49.0305499,21 47.9345306,20.5473118 47.1611183,19.641003 C46.3868173,18.7353935 46,17.487121 46,15.897584 L46,7 L49.7148676,7 L49.7148676,14.6667943 C49.7148676,15.5896535 49.9106091,16.2864017 50.3014257,16.7563396 C50.6924644,17.2267437 51.2461396,17.4614795 51.9633401,17.4614795 C52.6800963,17.4614795 53.2462137,17.2267437 53.6619145,16.7563396 C54.0773931,16.2864017 54.2851324,15.5896535 54.2851324,14.6667943 L54.2851324,7 L58,7 L58,20.7435855 L54.2851324,20.7435855 L54.2851324,18.7948351 C54.0731716,19.085749 53.8409924,19.3636091 53.5885947,19.6281823 C53.3357526,19.8934548 53.0546936,20.1281906 52.7454175,20.3333222 C52.4356971,20.538687 52.0937604,20.7011605 51.7187188,20.8205098 C51.3438993,20.9400922 50.9204221,21 50.4482874,21" id="Fill-1" fill="#0070D2"></path>
            <path d="M66.146123,20 C65.6002286,20 65.1053723,19.9376825 64.660916,19.813274 C64.2164598,19.6884123 63.8338871,19.4683747 63.5144741,19.1524814 C63.1946357,18.8370413 62.9449746,18.4257455 62.7661288,17.9188206 C62.586645,17.4118957 62.4969032,16.7680987 62.4969032,15.98675 L62.4969032,9.65528733 L61,9.65528733 L61,6.41500153 L62.4969032,6.41500153 L62.4969032,3 L66.0527659,3 L66.0527659,6.41500153 L69,6.41500153 L69,9.65528733 L66.0527659,9.65528733 L66.0527659,15.3635746 C66.0527659,16.2278623 66.4344879,16.6597795 67.1987825,16.6597795 C67.8225099,16.6597795 68.4073208,16.5022861 68.9532151,16.1861662 L68.9532151,19.2272624 C68.5789362,19.4602167 68.1655281,19.6471694 67.7134161,19.788347 C67.2608788,19.9292979 66.7388022,20 66.146123,20" id="Fill-2" fill="#0070D2"></path>
            <path d="M77.7227952,20 C76.7589222,20 75.8633966,19.8157054 75.0357801,19.4480287 C74.2083828,19.0803519 73.4975264,18.5824373 72.9034301,17.9551971 C72.3088957,17.327957 71.8431698,16.5921473 71.5058143,15.7475399 C71.1684587,14.9027045 71,14.0035842 71,13.0501792 L71,13.0002281 C71,12.0468231 71.1684587,11.1433692 71.5058143,10.2903226 C71.8431698,9.43727599 72.3088957,8.69325513 72.9034301,8.05757576 C73.4975264,7.42189638 74.2083828,6.92010427 75.0357801,6.55197133 C75.8633966,6.18429456 76.7746947,6 77.7712079,6 C78.9918217,6 80.0036693,6.20071685 80.8071889,6.60215054 C81.6102704,7.00358423 82.3171836,7.55555556 82.9277095,8.25806452 L80.6864857,10.7670251 C80.2689534,10.3154122 79.8389346,9.95594656 79.3975246,9.68817204 C78.9554574,9.4208537 78.4051735,9.28673835 77.746673,9.28673835 C77.280728,9.28673835 76.8590336,9.38321929 76.4815897,9.57526882 C76.1041457,9.76777452 75.7746764,10.0312154 75.4936198,10.3655914 C75.2125632,10.7006517 74.9956918,11.0895406 74.8432246,11.5322581 C74.6903193,11.9756598 74.6145238,12.4482568 74.6145238,12.9498208 L74.6145238,13.0002281 C74.6145238,13.5186706 74.6903193,14.0035842 74.8432246,14.4551971 C74.9956918,14.90681 75.2169444,15.3002607 75.5058873,15.6344086 C75.7948301,15.9692408 76.1400719,16.2326817 76.5418317,16.4247312 C76.9431534,16.6172369 77.3933259,16.7132616 77.891473,16.7132616 C78.5019989,16.7132616 79.0358532,16.5841642 79.4936928,16.3243728 C79.9519706,16.0652656 80.4054291,15.7185728 80.8556016,15.2831541 L83,17.5414467 C82.3734825,18.2606061 81.6586831,18.8502118 80.8556016,19.3100358 C80.052082,19.7698599 79.0075942,20 77.7227952,20" id="Fill-3" fill="#0070D2"></path>
            <path d="M98,11.4437291 C98,9.9149429 97.6127384,8.71522684 96.8391039,7.84368423 C96.065025,6.97281411 94.9694501,6.53681864 93.5519348,6.53681864 C93.0791335,6.53681864 92.6558785,6.59465249 92.2810591,6.70964769 C91.9060174,6.8246429 91.5638585,6.98065978 91.2545825,7.17814668 C90.9448621,7.37540941 90.663803,7.6013649 90.4114053,7.85623731 C90.1585632,8.11110973 89.926384,8.3780869 89.7148676,8.65739299 L89.7148676,2 L86,2 L86,20 L89.7148676,20 L89.7148676,12.6273054 C89.7148676,11.7396232 89.9226069,11.0700507 90.3380855,10.6176914 C90.7535642,10.1657804 91.3194594,9.9398249 92.0366599,9.9398249 C92.753416,9.9398249 93.3075356,10.1657804 93.6985743,10.6176914 C94.089613,11.0700507 94.2851324,11.7396232 94.2851324,12.6273054 L94.2851324,19.4335421 L98,14.1108108 L98,11.4437291" id="Fill-4" fill="#0070D2"></path>
            <g id="Group-8" transform="translate(27.000000, 0.000000)" fill="#0070D2">
                <path d="M15.4910864,7.69555999 C15.0451507,6.63259949 14.4134084,5.70733291 13.5956344,4.91998859 C12.7780855,4.13332932 11.8035583,3.51770279 10.6725032,3.07402239 C9.54077233,2.63034199 8.29800802,2.40815927 6.94375978,2.40815927 L0.180626491,2.40815927 L0.180626491,5.92472032 L6.94375978,5.92472032 C7.72009334,5.92472032 8.43043742,6.05442205 9.0745668,6.31245543 C9.71847096,6.57071715 10.2675575,6.93356232 10.7218263,7.40007752 C11.17587,7.86659273 11.5308168,8.42490389 11.7873425,9.07478264 C12.0431925,9.72466139 12.1713427,10.4329973 12.1713427,11.1995619 L12.1713427,11.2495701 C12.1713427,12.0328042 12.0431925,12.7413684 11.7873425,13.3745777 C11.5308168,14.0082438 11.17587,14.558106 10.7218263,15.0248496 C10.2675575,15.4913648 9.71847096,15.849643 9.0745668,16.0996842 C8.43043742,16.349497 7.72009334,16.4744035 6.94375978,16.4744035 L3.99562915,16.4744035 L3.99562915,9.34994212 L0.180626491,9.34994212 L0.180626491,19.9909645 L6.94375978,19.9909645 C8.29800802,19.9909645 9.54077233,19.7648999 10.6725032,19.3127706 C11.8035583,18.8608697 12.7780855,18.2413612 13.5956344,17.4540169 C14.4134084,16.6671293 15.0451507,15.7379808 15.4910864,14.6661147 C15.9370221,13.594477 16.1597648,12.4390355 16.1597648,11.1995619 L16.1597648,11.1493253 C16.1597648,9.91030841 15.9370221,8.75920553 15.4910864,7.69555999" id="Fill-5"></path>
                <polyline id="Fill-7" points="90.9961127 0.0564019856 83.5201579 11.1349394 91.3159252 22.731142 85.5649309 22.731142 80.5490548 14.9570302 75.5011976 22.731142 69.9101095 22.731142 77.7056515 11.1993335 70.2294715 0.0564019856 75.9802406 0.0564019856 80.6447734 7.40966815 85.4052499 0.0564019856 90.9961127 0.0564019856"></polyline>
            </g>
            <path d="M12,10.0045714 L12,10.0052384 C14.6017591,12.5954647 16.9772485,15.6378858 18.4009863,19 C20.013473,17.2794814 21,14.9949423 21,12.4894191 L21,3 C18.6817073,4.26498909 14.0112614,7.05819172 12,10.0045714" id="Fill-9" fill="#0070D2"></path>
            <path d="M4,21.0262567 C5.59486575,22.2674157 7.5630074,23 9.68623631,23 L11.3137637,23 C13.4369926,23 15.4049121,22.2674157 17,21.0262567 C15.7008665,17.280071 13.2154711,13.8716736 10.4998889,11 C7.78430669,13.8716736 5.29891128,17.280071 4,21.0262567" id="Fill-10" fill="#0070D2"></path>
            <g id="Group-14">
                <mask id="mask-2" fill="white">
                    <use xlink:href="#path-1"></use>
                </mask>
                <g id="Clip-12"></g>
                <path d="M10.5298764,9.27311787 C10.5298764,9.27311787 12.7554515,6.71648764 13.8757224,5.76643536 C13.5804087,3.68561312 11.7303422,1.3400808 10.5298764,0.0761739544 C9.32963403,1.3400808 7.47934411,3.68561312 7.18403042,5.76643536 C8.30452471,6.71648764 10.5298764,9.27311787 10.5298764,9.27311787" id="Fill-11" fill="#0070D2" mask="url(#mask-2)"></path>
                <path d="M8.78748099,10.1333698 C6.82348859,7.17286122 2.26377376,4.36626426 0,3.09520913 L0,12.6301331 C0,15.1476711 0.963455323,17.4431654 2.53764259,19.1719344 C3.92776141,15.7936977 6.24738118,12.7366873 8.78748099,10.1340399 L8.78748099,10.1333698" id="Fill-13" fill="#0070D2" mask="url(#mask-2)"></path>
            </g>
        </g>
    </g>
</svg>